<?xml version="1.0" encoding="UTF-8"?>
<svg xmlns="http://www.w3.org/2000/svg" viewBox="0 0 660 660" width="660" height="660">
  <rect width="100%" height="100%" fill="#ffffff"/>
  <rect x="40" y="40" width="140" height="20" fill="#1a1a1a"/><rect x="220" y="40" width="20" height="20" fill="#1a1a1a"/><rect x="260" y="40" width="20" height="20" fill="#1a1a1a"/><rect x="340" y="40" width="40" height="20" fill="#1a1a1a"/><rect x="400" y="40" width="40" height="20" fill="#1a1a1a"/><rect x="480" y="40" width="140" height="20" fill="#1a1a1a"/><rect x="40" y="60" width="20" height="20" fill="#1a1a1a"/><rect x="160" y="60" width="20" height="20" fill="#1a1a1a"/><rect x="200" y="60" width="20" height="20" fill="#1a1a1a"/><rect x="240" y="60" width="20" height="20" fill="#1a1a1a"/><rect x="320" y="60" width="100" height="20" fill="#1a1a1a"/><rect x="440" y="60" width="20" height="20" fill="#1a1a1a"/><rect x="480" y="60" width="20" height="20" fill="#1a1a1a"/><rect x="600" y="60" width="20" height="20" fill="#1a1a1a"/><rect x="40" y="80" width="20" height="20" fill="#1a1a1a"/><rect x="80" y="80" width="60" height="20" fill="#1a1a1a"/><rect x="160" y="80" width="20" height="20" fill="#1a1a1a"/><rect x="220" y="80" width="80" height="20" fill="#1a1a1a"/><rect x="340" y="80" width="120" height="20" fill="#1a1a1a"/><rect x="480" y="80" width="20" height="20" fill="#1a1a1a"/><rect x="520" y="80" width="60" height="20" fill="#1a1a1a"/><rect x="600" y="80" width="20" height="20" fill="#1a1a1a"/><rect x="40" y="100" width="20" height="20" fill="#1a1a1a"/><rect x="80" y="100" width="60" height="20" fill="#1a1a1a"/><rect x="160" y="100" width="20" height="20" fill="#1a1a1a"/><rect x="220" y="100" width="20" height="20" fill="#1a1a1a"/><rect x="260" y="100" width="20" height="20" fill="#1a1a1a"/><rect x="300" y="100" width="60" height="20" fill="#1a1a1a"/><rect x="400" y="100" width="40" height="20" fill="#1a1a1a"/><rect x="480" y="100" width="20" height="20" fill="#1a1a1a"/><rect x="520" y="100" width="60" height="20" fill="#1a1a1a"/><rect x="600" y="100" width="20" height="20" fill="#1a1a1a"/><rect x="40" y="120" width="20" height="20" fill="#1a1a1a"/><rect x="80" y="120" width="60" height="20" fill="#1a1a1a"/><rect x="160" y="120" width="20" height="20" fill="#1a1a1a"/><rect x="220" y="120" width="20" height="20" fill="#1a1a1a"/><rect x="320" y="120" width="60" height="20" fill="#1a1a1a"/><rect x="400" y="120" width="20" height="20" fill="#1a1a1a"/><rect x="480" y="120" width="20" height="20" fill="#1a1a1a"/><rect x="520" y="120" width="60" height="20" fill="#1a1a1a"/><rect x="600" y="120" width="20" height="20" fill="#1a1a1a"/><rect x="40" y="140" width="20" height="20" fill="#1a1a1a"/><rect x="160" y="140" width="20" height="20" fill="#1a1a1a"/><rect x="200" y="140" width="20" height="20" fill="#1a1a1a"/><rect x="240" y="140" width="20" height="20" fill="#1a1a1a"/><rect x="280" y="140" width="20" height="20" fill="#1a1a1a"/><rect x="320" y="140" width="40" height="20" fill="#1a1a1a"/><rect x="400" y="140" width="40" height="20" fill="#1a1a1a"/><rect x="480" y="140" width="20" height="20" fill="#1a1a1a"/><rect x="600" y="140" width="20" height="20" fill="#1a1a1a"/><rect x="40" y="160" width="140" height="20" fill="#1a1a1a"/><rect x="200" y="160" width="20" height="20" fill="#1a1a1a"/><rect x="240" y="160" width="20" height="20" fill="#1a1a1a"/><rect x="280" y="160" width="20" height="20" fill="#1a1a1a"/><rect x="320" y="160" width="20" height="20" fill="#1a1a1a"/><rect x="360" y="160" width="20" height="20" fill="#1a1a1a"/><rect x="400" y="160" width="20" height="20" fill="#1a1a1a"/><rect x="440" y="160" width="20" height="20" fill="#1a1a1a"/><rect x="480" y="160" width="140" height="20" fill="#1a1a1a"/><rect x="200" y="180" width="20" height="20" fill="#1a1a1a"/><rect x="240" y="180" width="40" height="20" fill="#1a1a1a"/><rect x="300" y="180" width="40" height="20" fill="#1a1a1a"/><rect x="360" y="180" width="60" height="20" fill="#1a1a1a"/><rect x="440" y="180" width="20" height="20" fill="#1a1a1a"/><rect x="120" y="200" width="80" height="20" fill="#1a1a1a"/><rect x="260" y="200" width="60" height="20" fill="#1a1a1a"/><rect x="340" y="200" width="20" height="20" fill="#1a1a1a"/><rect x="400" y="200" width="20" height="20" fill="#1a1a1a"/><rect x="480" y="200" width="40" height="20" fill="#1a1a1a"/><rect x="580" y="200" width="20" height="20" fill="#1a1a1a"/><rect x="100" y="220" width="60" height="20" fill="#1a1a1a"/><rect x="220" y="220" width="20" height="20" fill="#1a1a1a"/><rect x="260" y="220" width="40" height="20" fill="#1a1a1a"/><rect x="320" y="220" width="20" height="20" fill="#1a1a1a"/><rect x="380" y="220" width="20" height="20" fill="#1a1a1a"/><rect x="420" y="220" width="40" height="20" fill="#1a1a1a"/><rect x="480" y="220" width="140" height="20" fill="#1a1a1a"/><rect x="40" y="240" width="20" height="20" fill="#1a1a1a"/><rect x="80" y="240" width="20" height="20" fill="#1a1a1a"/><rect x="120" y="240" width="60" height="20" fill="#1a1a1a"/><rect x="220" y="240" width="80" height="20" fill="#1a1a1a"/><rect x="320" y="240" width="40" height="20" fill="#1a1a1a"/><rect x="400" y="240" width="20" height="20" fill="#1a1a1a"/><rect x="440" y="240" width="40" height="20" fill="#1a1a1a"/><rect x="500" y="240" width="40" height="20" fill="#1a1a1a"/><rect x="560" y="240" width="20" height="20" fill="#1a1a1a"/><rect x="600" y="240" width="20" height="20" fill="#1a1a1a"/><rect x="40" y="260" width="20" height="20" fill="#1a1a1a"/><rect x="80" y="260" width="40" height="20" fill="#1a1a1a"/><rect x="140" y="260" width="20" height="20" fill="#1a1a1a"/><rect x="200" y="260" width="20" height="20" fill="#1a1a1a"/><rect x="240" y="260" width="20" height="20" fill="#1a1a1a"/><rect x="280" y="260" width="80" height="20" fill="#1a1a1a"/><rect x="380" y="260" width="40" height="20" fill="#1a1a1a"/><rect x="460" y="260" width="20" height="20" fill="#1a1a1a"/><rect x="520" y="260" width="40" height="20" fill="#1a1a1a"/><rect x="580" y="260" width="40" height="20" fill="#1a1a1a"/><rect x="40" y="280" width="20" height="20" fill="#1a1a1a"/><rect x="80" y="280" width="20" height="20" fill="#1a1a1a"/><rect x="120" y="280" width="80" height="20" fill="#1a1a1a"/><rect x="220" y="280" width="40" height="20" fill="#1a1a1a"/><rect x="340" y="280" width="120" height="20" fill="#1a1a1a"/><rect x="500" y="280" width="20" height="20" fill="#1a1a1a"/><rect x="540" y="280" width="20" height="20" fill="#1a1a1a"/><rect x="600" y="280" width="20" height="20" fill="#1a1a1a"/><rect x="40" y="300" width="80" height="20" fill="#1a1a1a"/><rect x="140" y="300" width="20" height="20" fill="#1a1a1a"/><rect x="180" y="300" width="40" height="20" fill="#1a1a1a"/><rect x="240" y="300" width="20" height="20" fill="#1a1a1a"/><rect x="300" y="300" width="120" height="20" fill="#1a1a1a"/><rect x="440" y="300" width="20" height="20" fill="#1a1a1a"/><rect x="480" y="300" width="20" height="20" fill="#1a1a1a"/><rect x="520" y="300" width="20" height="20" fill="#1a1a1a"/><rect x="560" y="300" width="60" height="20" fill="#1a1a1a"/><rect x="40" y="320" width="40" height="20" fill="#1a1a1a"/><rect x="100" y="320" width="20" height="20" fill="#1a1a1a"/><rect x="140" y="320" width="80" height="20" fill="#1a1a1a"/><rect x="280" y="320" width="40" height="20" fill="#1a1a1a"/><rect x="360" y="320" width="40" height="20" fill="#1a1a1a"/><rect x="440" y="320" width="60" height="20" fill="#1a1a1a"/><rect x="520" y="320" width="20" height="20" fill="#1a1a1a"/><rect x="600" y="320" width="20" height="20" fill="#1a1a1a"/><rect x="40" y="340" width="40" height="20" fill="#1a1a1a"/><rect x="120" y="340" width="40" height="20" fill="#1a1a1a"/><rect x="180" y="340" width="20" height="20" fill="#1a1a1a"/><rect x="340" y="340" width="20" height="20" fill="#1a1a1a"/><rect x="400" y="340" width="20" height="20" fill="#1a1a1a"/><rect x="440" y="340" width="20" height="20" fill="#1a1a1a"/><rect x="500" y="340" width="20" height="20" fill="#1a1a1a"/><rect x="540" y="340" width="20" height="20" fill="#1a1a1a"/><rect x="600" y="340" width="20" height="20" fill="#1a1a1a"/><rect x="60" y="360" width="40" height="20" fill="#1a1a1a"/><rect x="120" y="360" width="120" height="20" fill="#1a1a1a"/><rect x="260" y="360" width="40" height="20" fill="#1a1a1a"/><rect x="380" y="360" width="20" height="20" fill="#1a1a1a"/><rect x="420" y="360" width="60" height="20" fill="#1a1a1a"/><rect x="580" y="360" width="20" height="20" fill="#1a1a1a"/><rect x="40" y="380" width="40" height="20" fill="#1a1a1a"/><rect x="100" y="380" width="20" height="20" fill="#1a1a1a"/><rect x="140" y="380" width="20" height="20" fill="#1a1a1a"/><rect x="180" y="380" width="100" height="20" fill="#1a1a1a"/><rect x="380" y="380" width="60" height="20" fill="#1a1a1a"/><rect x="480" y="380" width="20" height="20" fill="#1a1a1a"/><rect x="520" y="380" width="40" height="20" fill="#1a1a1a"/><rect x="600" y="380" width="20" height="20" fill="#1a1a1a"/><rect x="80" y="400" width="20" height="20" fill="#1a1a1a"/><rect x="160" y="400" width="60" height="20" fill="#1a1a1a"/><rect x="260" y="400" width="40" height="20" fill="#1a1a1a"/><rect x="360" y="400" width="20" height="20" fill="#1a1a1a"/><rect x="420" y="400" width="20" height="20" fill="#1a1a1a"/><rect x="500" y="400" width="60" height="20" fill="#1a1a1a"/><rect x="600" y="400" width="20" height="20" fill="#1a1a1a"/><rect x="80" y="420" width="40" height="20" fill="#1a1a1a"/><rect x="140" y="420" width="20" height="20" fill="#1a1a1a"/><rect x="200" y="420" width="20" height="20" fill="#1a1a1a"/><rect x="260" y="420" width="20" height="20" fill="#1a1a1a"/><rect x="300" y="420" width="40" height="20" fill="#1a1a1a"/><rect x="380" y="420" width="80" height="20" fill="#1a1a1a"/><rect x="500" y="420" width="20" height="20" fill="#1a1a1a"/><rect x="540" y="420" width="20" height="20" fill="#1a1a1a"/><rect x="580" y="420" width="40" height="20" fill="#1a1a1a"/><rect x="40" y="440" width="60" height="20" fill="#1a1a1a"/><rect x="160" y="440" width="20" height="20" fill="#1a1a1a"/><rect x="200" y="440" width="60" height="20" fill="#1a1a1a"/><rect x="280" y="440" width="20" height="20" fill="#1a1a1a"/><rect x="320" y="440" width="20" height="20" fill="#1a1a1a"/><rect x="380" y="440" width="20" height="20" fill="#1a1a1a"/><rect x="440" y="440" width="120" height="20" fill="#1a1a1a"/><rect x="580" y="440" width="20" height="20" fill="#1a1a1a"/><rect x="200" y="460" width="40" height="20" fill="#1a1a1a"/><rect x="280" y="460" width="40" height="20" fill="#1a1a1a"/><rect x="360" y="460" width="40" height="20" fill="#1a1a1a"/><rect x="420" y="460" width="40" height="20" fill="#1a1a1a"/><rect x="520" y="460" width="20" height="20" fill="#1a1a1a"/><rect x="560" y="460" width="60" height="20" fill="#1a1a1a"/><rect x="40" y="480" width="140" height="20" fill="#1a1a1a"/><rect x="200" y="480" width="80" height="20" fill="#1a1a1a"/><rect x="320" y="480" width="40" height="20" fill="#1a1a1a"/><rect x="380" y="480" width="20" height="20" fill="#1a1a1a"/><rect x="420" y="480" width="40" height="20" fill="#1a1a1a"/><rect x="480" y="480" width="20" height="20" fill="#1a1a1a"/><rect x="520" y="480" width="20" height="20" fill="#1a1a1a"/><rect x="600" y="480" width="20" height="20" fill="#1a1a1a"/><rect x="40" y="500" width="20" height="20" fill="#1a1a1a"/><rect x="160" y="500" width="20" height="20" fill="#1a1a1a"/><rect x="200" y="500" width="20" height="20" fill="#1a1a1a"/><rect x="240" y="500" width="20" height="20" fill="#1a1a1a"/><rect x="280" y="500" width="20" height="20" fill="#1a1a1a"/><rect x="320" y="500" width="40" height="20" fill="#1a1a1a"/><rect x="400" y="500" width="60" height="20" fill="#1a1a1a"/><rect x="520" y="500" width="40" height="20" fill="#1a1a1a"/><rect x="40" y="520" width="20" height="20" fill="#1a1a1a"/><rect x="80" y="520" width="60" height="20" fill="#1a1a1a"/><rect x="160" y="520" width="20" height="20" fill="#1a1a1a"/><rect x="200" y="520" width="80" height="20" fill="#1a1a1a"/><rect x="300" y="520" width="20" height="20" fill="#1a1a1a"/><rect x="340" y="520" width="40" height="20" fill="#1a1a1a"/><rect x="420" y="520" width="120" height="20" fill="#1a1a1a"/><rect x="580" y="520" width="40" height="20" fill="#1a1a1a"/><rect x="40" y="540" width="20" height="20" fill="#1a1a1a"/><rect x="80" y="540" width="60" height="20" fill="#1a1a1a"/><rect x="160" y="540" width="20" height="20" fill="#1a1a1a"/><rect x="220" y="540" width="40" height="20" fill="#1a1a1a"/><rect x="300" y="540" width="20" height="20" fill="#1a1a1a"/><rect x="340" y="540" width="60" height="20" fill="#1a1a1a"/><rect x="500" y="540" width="20" height="20" fill="#1a1a1a"/><rect x="560" y="540" width="40" height="20" fill="#1a1a1a"/><rect x="40" y="560" width="20" height="20" fill="#1a1a1a"/><rect x="80" y="560" width="60" height="20" fill="#1a1a1a"/><rect x="160" y="560" width="20" height="20" fill="#1a1a1a"/><rect x="240" y="560" width="20" height="20" fill="#1a1a1a"/><rect x="380" y="560" width="100" height="20" fill="#1a1a1a"/><rect x="540" y="560" width="20" height="20" fill="#1a1a1a"/><rect x="580" y="560" width="40" height="20" fill="#1a1a1a"/><rect x="40" y="580" width="20" height="20" fill="#1a1a1a"/><rect x="160" y="580" width="20" height="20" fill="#1a1a1a"/><rect x="240" y="580" width="20" height="20" fill="#1a1a1a"/><rect x="380" y="580" width="20" height="20" fill="#1a1a1a"/><rect x="500" y="580" width="20" height="20" fill="#1a1a1a"/><rect x="540" y="580" width="20" height="20" fill="#1a1a1a"/><rect x="580" y="580" width="40" height="20" fill="#1a1a1a"/><rect x="40" y="600" width="140" height="20" fill="#1a1a1a"/><rect x="220" y="600" width="20" height="20" fill="#1a1a1a"/><rect x="280" y="600" width="20" height="20" fill="#1a1a1a"/><rect x="320" y="600" width="40" height="20" fill="#1a1a1a"/><rect x="400" y="600" width="60" height="20" fill="#1a1a1a"/><rect x="520" y="600" width="20" height="20" fill="#1a1a1a"/><rect x="580" y="600" width="20" height="20" fill="#1a1a1a"/>
  <rect x="201" y="285"
        width="259" height="91"
        rx="22" ry="22" fill="#ffffff"/>
  <rect x="209" y="293" width="243" height="75"
        rx="18" ry="18" fill="#FF6B00"/>
  <text x="330" y="330" text-anchor="middle" dominant-baseline="central"
        font-family="Helvetica, Arial, sans-serif" font-weight="bold"
        font-size="45" fill="#ffffff"
        letter-spacing="1">ECOURIER</text>
</svg>
